<svg xmlns="http://www.w3.org/2000/svg" viewBox="0 0 512 512" width="64" height="64">
  <!-- Bajaj Three-wheeler/Tuk-tuk Icon - Royal Blue -->
  <path fill="#003366" d="M112,288H96a16,16,0,0,1,0-32h16V224a64.07,64.07,0,0,1,64-64h48a16,16,0,0,1,0,32H176a32,32,0,0,0-32,32v32h80a16,16,0,0,1,0,32H144v16a16,16,0,0,1-32,0ZM464,224v64H448V160a48.05,48.05,0,0,0-48-48H272a16,16,0,0,0-16,16V336H240a16,16,0,0,0,0,32h32a16,16,0,0,0,16-16V304H432v76.69A48,48,0,1,0,464,416V224ZM128,416a48,48,0,1,1-48-48A48,48,0,0,1,128,416Zm288,0a16,16,0,1,1-16-16A16,16,0,0,1,416,416ZM96,416a16,16,0,1,1-16-16A16,16,0,0,1,96,416ZM336,144h64a16,16,0,0,1,16,16v64H336Z"/>
  <path fill="#003366" d="M380 140 L380 220 L320 220 L320 160 Q320 140 340 140 Z" opacity="0.5"/>
</svg>
